<?xml version="1.0" encoding="UTF-8"?>
<svg xmlns="http://www.w3.org/2000/svg" viewBox="0 0 4145 2665.03">
  <defs>
    <style>
      .cls-1, .cls-2, .cls-3, .cls-4 {
        stroke-width: 0px;
      }

      .cls-2 {
        fill: #00ff79;
      }

      .cls-3 {
        fill: #ff7f7f;
      }

      .cls-4 {
        fill: #ffb380;
      }
    </style>
  </defs>
  <g id="Layer_1" data-name="Layer 1">
    <path class="cls-1" d="M1225,604v66h-66v-66h66M1226,603h-68v68h68v-68h0Z"/>
    <path class="cls-1" d="M1225,537v66h-66v-66h66M1226,536h-68v68h68v-68h0Z"/>
    <path class="cls-1" d="M1158,537v133h-133v-133h133M1159,536h-135v135h135v-135h0Z"/>
    <path class="cls-1" d="M1225,671v200h-200v-200h200M1226,670h-202v202h202v-202h0Z"/>
    <path class="cls-1" d="M1560,537v334h-334v-334h334M1561,536h-336v336h336v-336h0Z"/>
    <path class="cls-1" d="M1560,1v535h-535V1h535M1561,0h-537v537h537V0h0Z"/>
    <path class="cls-1" d="M1024,1v870H154V1h870M1025,0H153v872h872V0h0Z"/>
    <path class="cls-1" d="M1192,538c17.64,0,32,14.36,32,32s-14.36,32-32,32-32-14.36-32-32,14.36-32,32-32M1192,537c-18.23,0-33,14.77-33,33s14.77,33,33,33,33-14.77,33-33-14.77-33-33-33h0Z"/>
    <path class="cls-1" d="M1091,537c36.39,0,66,29.61,66,66s-29.61,66-66,66-66-29.61-66-66,29.61-66,66-66M1091,536c-37,0-67,30-67,67s30,67,67,67,67-30,67-67-30-67-67-67h0Z"/>
    <path class="cls-1" d="M1125,672c54.59,0,99,44.41,99,99s-44.41,99-99,99-99-44.41-99-99,44.41-99,99-99M1125,671c-55.23,0-100,44.77-100,100s44.77,100,100,100,100-44.77,100-100-44.77-100-100-100h0Z"/>
    <path class="cls-1" d="M1393,538c44.34,0,86.03,17.27,117.38,48.62,31.35,31.35,48.62,73.04,48.62,117.38s-17.27,86.03-48.62,117.38c-31.35,31.35-73.04,48.62-117.38,48.62s-86.03-17.27-117.38-48.62c-31.35-31.35-48.62-73.04-48.62-117.38s17.27-86.03,48.62-117.38c31.35-31.35,73.04-48.62,117.38-48.62M1393,537c-92.23,0-167,74.77-167,167s74.77,167,167,167,167-74.77,167-167-74.77-167-167-167h0Z"/>
    <path class="cls-1" d="M1293,2c36.05,0,71.01,7.06,103.93,20.98,31.79,13.45,60.35,32.7,84.87,57.22,24.52,24.52,43.77,53.08,57.22,84.87,13.92,32.92,20.98,67.88,20.98,103.93s-7.06,71.01-20.98,103.93c-13.45,31.79-32.7,60.35-57.22,84.87-24.52,24.52-53.08,43.77-84.87,57.22-32.92,13.92-67.88,20.98-103.93,20.98s-71.01-7.06-103.93-20.98c-31.79-13.45-60.35-32.7-84.87-57.22-24.52-24.52-43.77-53.08-57.22-84.87-13.92-32.92-20.98-67.88-20.98-103.93s7.06-71.01,20.98-103.93c13.45-31.79,32.7-60.35,57.22-84.87,24.52-24.52,53.08-43.77,84.87-57.22,32.92-13.92,67.88-20.98,103.93-20.98M1293,1c-148.01,0-268,119.99-268,268s119.99,268,268,268,268-119.99,268-268S1441.01,1,1293,1h0Z"/>
    <path class="cls-1" d="M589,2c58.59,0,115.43,11.47,168.93,34.11,51.68,21.86,98.09,53.15,137.95,93.01,39.86,39.86,71.15,86.27,93.01,137.95,22.63,53.51,34.11,110.34,34.11,168.93s-11.47,115.43-34.11,168.93c-21.86,51.68-53.15,98.09-93.01,137.95-39.86,39.86-86.27,71.15-137.95,93.01-53.51,22.63-110.34,34.11-168.93,34.11s-115.43-11.47-168.93-34.11c-51.68-21.86-98.09-53.15-137.95-93.01-39.86-39.86-71.15-86.27-93.01-137.95-22.63-53.51-34.11-110.34-34.11-168.93s11.47-115.43,34.11-168.93c21.86-51.68,53.15-98.09,93.01-137.95,39.86-39.86,86.27-71.15,137.95-93.01C473.57,13.47,530.41,2,589,2M589,1c-240.24,0-435,194.76-435,435s194.76,435,435,435,435-194.76,435-435S829.24,1,589,1h0Z"/>
    <path class="cls-1" d="M435,1131c58.59,0,115.43,11.47,168.93,34.11,51.68,21.86,98.09,53.15,137.95,93.01,39.86,39.86,71.15,86.27,93.01,137.95,22.63,53.51,34.11,110.34,34.11,168.93s-11.47,115.43-34.11,168.93c-21.86,51.68-53.15,98.09-93.01,137.95-39.86,39.86-86.27,71.15-137.95,93.01-53.51,22.63-110.34,34.11-168.93,34.11s-115.43-11.47-168.93-34.11c-51.68-21.86-98.09-53.15-137.95-93.01-39.86-39.86-71.15-86.27-93.01-137.95-22.63-53.51-34.11-110.34-34.11-168.93s11.47-115.43,34.11-168.93c21.86-51.68,53.15-98.09,93.01-137.95,39.86-39.86,86.27-71.15,137.95-93.01,53.51-22.63,110.34-34.11,168.93-34.11M435,1130C194.76,1130,0,1324.76,0,1565s194.76,435,435,435,435-194.76,435-435-194.76-435-435-435h0Z"/>
    <path class="cls-1" d="M435,1298c36.05,0,71.01,7.06,103.93,20.98,31.79,13.45,60.35,32.7,84.87,57.22,24.52,24.52,43.77,53.08,57.22,84.87,13.92,32.92,20.98,67.88,20.98,103.93s-7.06,71.01-20.98,103.93c-13.45,31.79-32.7,60.35-57.22,84.87-24.52,24.52-53.08,43.77-84.87,57.22-32.92,13.92-67.88,20.98-103.93,20.98s-71.01-7.06-103.93-20.98c-31.79-13.45-60.35-32.7-84.87-57.22-24.52-24.52-43.77-53.08-57.22-84.87-13.92-32.92-20.98-67.88-20.98-103.93s7.06-71.01,20.98-103.93c13.45-31.79,32.7-60.35,57.22-84.87,24.52-24.52,53.08-43.77,84.87-57.22,32.92-13.92,67.88-20.98,103.93-20.98M435,1297c-148.01,0-268,119.99-268,268s119.99,268,268,268,268-119.99,268-268-119.99-268-268-268h0Z"/>
    <path class="cls-1" d="M435,1399c44.34,0,86.03,17.27,117.38,48.62,31.35,31.35,48.62,73.04,48.62,117.38s-17.27,86.03-48.62,117.38c-31.35,31.35-73.04,48.62-117.38,48.62s-86.03-17.27-117.38-48.62c-31.35-31.35-48.62-73.04-48.62-117.38s17.27-86.03,48.62-117.38c31.35-31.35,73.04-48.62,117.38-48.62M435,1398c-92.23,0-167,74.77-167,167s74.77,167,167,167,167-74.77,167-167-74.77-167-167-167h0Z"/>
    <path class="cls-1" d="M435,1466c54.59,0,99,44.41,99,99s-44.41,99-99,99-99-44.41-99-99,44.41-99,99-99M435,1465c-55.23,0-100,44.77-100,100s44.77,100,100,100,100-44.77,100-100-44.77-100-100-100h0Z"/>
    <path class="cls-1" d="M435,1499c36.39,0,66,29.61,66,66s-29.61,66-66,66-66-29.61-66-66,29.61-66,66-66M435,1498c-37,0-67,30-67,67s30,67,67,67,67-30,67-67-30-67-67-67h0Z"/>
    <path class="cls-1" d="M435,1533c17.64,0,32,14.36,32,32s-14.36,32-32,32-32-14.36-32-32,14.36-32,32-32M435,1532c-18.23,0-33,14.77-33,33s14.77,33,33,33,33-14.77,33-33-14.77-33-33-33h0Z"/>
    <path class="cls-1" d="M1561,1331c36.05,0,71.01,7.06,103.93,20.98,31.79,13.45,60.35,32.7,84.87,57.22,24.52,24.52,43.77,53.08,57.22,84.87,13.92,32.92,20.98,67.88,20.98,103.93s-7.06,71.01-20.98,103.93c-13.45,31.79-32.7,60.35-57.22,84.87-24.52,24.52-53.08,43.77-84.87,57.22-32.92,13.92-67.88,20.98-103.93,20.98s-71.01-7.06-103.93-20.98c-31.79-13.45-60.35-32.7-84.87-57.22-24.52-24.52-43.77-53.08-57.22-84.87-13.92-32.92-20.98-67.88-20.98-103.93s7.06-71.01,20.98-103.93c13.45-31.79,32.7-60.35,57.22-84.87,24.52-24.52,53.08-43.77,84.87-57.22,32.92-13.92,67.88-20.98,103.93-20.98M1561,1330c-148.01,0-268,119.99-268,268s119.99,268,268,268,268-119.99,268-268-119.99-268-268-268h0Z"/>
    <path class="cls-1" d="M1495.32,1419.07c36.05,0,71.01,7.06,103.93,20.98,31.79,13.45,60.35,32.7,84.87,57.22,24.52,24.52,43.77,53.08,57.22,84.87,13.92,32.92,20.98,67.88,20.98,103.93s-7.06,71.01-20.98,103.93c-13.45,31.79-32.7,60.35-57.22,84.87-24.52,24.52-53.08,43.77-84.87,57.22-32.92,13.92-67.88,20.98-103.93,20.98s-71.01-7.06-103.93-20.98c-31.79-13.45-60.35-32.7-84.87-57.22s-43.77-53.08-57.22-84.87c-13.92-32.92-20.98-67.88-20.98-103.93s7.06-71.01,20.98-103.93c13.45-31.79,32.7-60.35,57.22-84.87s53.08-43.77,84.87-57.22c32.92-13.92,67.88-20.98,103.93-20.98M1495.32,1418.07c-148.01,0-268,119.99-268,268s119.99,268,268,268,268-119.99,268-268-119.99-268-268-268h0Z"/>
    <path class="cls-1" d="M1429,1331c36.05,0,71.01,7.06,103.93,20.98,31.79,13.45,60.35,32.7,84.87,57.22,24.52,24.52,43.77,53.08,57.22,84.87,13.92,32.92,20.98,67.88,20.98,103.93s-7.06,71.01-20.98,103.93c-13.45,31.79-32.7,60.35-57.22,84.87-24.52,24.52-53.08,43.77-84.87,57.22-32.92,13.92-67.88,20.98-103.93,20.98s-71.01-7.06-103.93-20.98c-31.79-13.45-60.35-32.7-84.87-57.22-24.52-24.52-43.77-53.08-57.22-84.87-13.92-32.92-20.98-67.88-20.98-103.93s7.06-71.01,20.98-103.93c13.45-31.79,32.7-60.35,57.22-84.87,24.52-24.52,53.08-43.77,84.87-57.22,32.92-13.92,67.88-20.98,103.93-20.98M1429,1330c-148.01,0-268,119.99-268,268s119.99,268,268,268,268-119.99,268-268-119.99-268-268-268h0Z"/>
    <path class="cls-1" d="M1460,1425c44.34,0,86.03,17.27,117.38,48.62,31.35,31.35,48.62,73.04,48.62,117.38s-17.27,86.03-48.62,117.38c-31.35,31.35-73.04,48.62-117.38,48.62s-86.03-17.27-117.38-48.62c-31.35-31.35-48.62-73.04-48.62-117.38s17.27-86.03,48.62-117.38c31.35-31.35,73.04-48.62,117.38-48.62M1460,1424c-92.23,0-167,74.77-167,167s74.77,167,167,167,167-74.77,167-167-74.77-167-167-167h0Z"/>
    <path class="cls-1" d="M1530,1425c44.34,0,86.03,17.27,117.38,48.62,31.35,31.35,48.62,73.04,48.62,117.38s-17.27,86.03-48.62,117.38c-31.35,31.35-73.04,48.62-117.38,48.62s-86.03-17.27-117.38-48.62c-31.35-31.35-48.62-73.04-48.62-117.38s17.27-86.03,48.62-117.38c31.35-31.35,73.04-48.62,117.38-48.62M1530,1424c-92.23,0-167,74.77-167,167s74.77,167,167,167,167-74.77,167-167-74.77-167-167-167h0Z"/>
    <path class="cls-1" d="M1495.32,1281.68c36.39,0,66,29.61,66,66s-29.61,66-66,66-66-29.61-66-66,29.61-66,66-66M1495.32,1280.68c-37,0-67,30-67,67s30,67,67,67,67-30,67-67-30-67-67-67h0Z"/>
    <path class="cls-1" d="M1427,1358c36.39,0,66,29.61,66,66s-29.61,66-66,66-66-29.61-66-66,29.61-66,66-66M1427,1357c-37,0-67,30-67,67s30,67,67,67,67-30,67-67-30-67-67-67h0Z"/>
    <path class="cls-1" d="M1562.32,1358c36.39,0,66,29.61,66,66s-29.61,66-66,66-66-29.61-66-66,29.61-66,66-66M1562.32,1357c-37,0-67,30-67,67s30,67,67,67,67-30,67-67-30-67-67-67h0Z"/>
    <g>
      <path class="cls-3" d="M2778.47,420.06c0,62.26-21.23,119.56-56.85,165.06-.24-.09-.49-.18-.73-.26-.83,1.47-1.68,2.93-2.56,4.37-24.18,29.68-54.59,54.08-89.23,71.2h-.01c-.97.49-1.94.97-2.92,1.43-15.77,7.57-32.4,13.63-49.7,18.01-16-4.05-31.43-9.54-46.14-16.34-2.38-1.09-4.73-2.22-7.07-3.38-35.92-17.87-67.26-43.56-91.79-74.85-1.4-1.78-2.78-3.59-4.13-5.41-33.22-44.62-52.87-99.93-52.87-159.83,0-1.29.01-2.58.03-3.86.14-9.89.81-19.65,2-29.25.14-.91.29-1.82.45-2.72,7.91-45.46,34.21-84.61,70.95-109.51,5.84-3.97,11.95-7.57,18.3-10.77,11.33-5.14,23.08-9.51,35.19-13.05,12.84-3.16,26.27-4.84,40.08-4.84,11.62,0,22.96,1.19,33.91,3.44h0c.37.08.73.16,1.09.23.14-.03.28-.06.42-.08,11.16-2.35,22.72-3.59,34.58-3.59,15.65,0,30.81,2.15,45.18,6.18,8.11,2.53,16.05,5.43,23.81,8.69,8.42,3.82,16.47,8.33,24.07,13.44,36.91,24.82,63.37,63.97,71.39,109.49.19,1.02.36,2.05.52,3.09,1.19,9.6,1.86,19.36,2,29.25.02,1.28.03,2.57.03,3.86Z"/>
      <path class="cls-2" d="M2574.82,236.71c-30.51-.88-55.91-22.16-63.03-50.68-.57-2.27-1.02-4.59-1.35-6.94,4.04.11,7.98.59,11.81,1.39,27.41,5.73,48.66,28.2,52.57,56.23Z"/>
      <path class="cls-2" d="M2643.14,179.07c-.34,2.47-.82,4.9-1.43,7.28-7.33,28.77-33.28,50.09-64.27,50.38,3.93-28.2,25.41-50.79,53.06-56.35,4.09-.82,8.32-1.28,12.64-1.31Z"/>
    </g>
  </g>
  <g id="Jar">
    <g>
      <path class="cls-4" d="M2627.39,1297.16c-11.49,1.18-24.51-2.35-30.64,9.04-6.13,11.39-1.02,21.6,15.32,26.71,16.34,5.11,174.64,19.37,197.11,16.83s25.84-4.74,27.57-14.79-4.09-18.38-17.36-22.47-174.97-17.07-192-15.32Z"/>
      <path class="cls-3" d="M2527.67,1427.1c-5.98-15.04-11.96-32.22,0-52.63,11.96-20.41,20.34-23.63,32.3-24.71,11.96-1.07,218.94,31.15,241.67,32.22,22.73,1.07,47.86,2.15,59.82,12.89,11.96,10.74,19.14,27.93,21.53,48.34,2.39,20.41-4.21,63.87-3.01,79.99.57,7.71,4.43,31.32,15.64,55.76,11.42,24.87,11.59,54.54,2.4,61.35-16.09,11.92-91.91,39.83-140.94,45.28-52.42,5.82-171.02-1.59-181.79-17.7-10.77-16.11-26.1-44.21-29.69-76.43-3.59-32.22-8.37-126.75-11.96-141.79-3.59-15.04-5.98-22.56-5.98-22.56Z"/>
      <path class="cls-1" d="M2349.72,1702.79c30.08-4.24,60.32-7.59,90.69-8.84,30.34-1.27,60.78-.72,91.06-2.64,14.24-1.05,31.28-2.07,42.45-11.88,3.58-3.29,5.96-7.73,6.67-12.54v.32c-2.14-14.45-5.09-28.82-8.18-43.12-11.2-52.54-24.45-105.12-28.04-158.91-.15-1.8-.35-5.55-.36-7.36-.05-4.16-.43-10.61-.17-14.75.23-7.19.21-15.14,1.8-22.25,5.44-27.36,26.9-41.21,51.74-49.58,27.1-8.78,55.8-10.56,84.09-10.35,40.31,1.94,80.32,7.98,120.57,10.03,22.09.81,52.57,3.12,71.06-10.38,0,0,1.25-1.09,1.25-1.09l.63-.54c.2-.19.37-.39.55-.59,7.87-7.4,1.18-16.59-6.37-21.13-6.1-3.54-12.92-5.31-19.77-6.97-42.72-9.26-86.64-14.15-130.19-17.93-24.23-1.92-48.56-3.4-72.86-2.74-13.58.6-28.96.65-39.47,10.22-3.06,2.76-5.64,6.71-6.52,10.6-1,4.63,2.05,6.11,4.5,6.93,27.66,3.49,68.65,6.74,96.95,9.06,48.79,4.51,97.69,8.35,145.42,20.32,16.46,4.29,32.27,13.38,41.04,28.59,12.68,21.2,9.36,42.5-8.51,59.44-7.71,7.33-17.03,13.09-27.06,16.63-17.7,5.59-36,9.12-54.31,11.46-12.19,1.55-24.42,2.59-36.68,3.27-12.34.79-24.82.69-37.13-.8-30.85-3.43-58.74-18.01-87.39-28.36-19.59-6.63-43.6-8.9-60.47,5.07-6.93,6.36-7.35,16.88-7.71,25.86-.07,11.71,2.36,23.48,6.64,34.4.93,2.25,2.01,4.51,2.98,6.75.98,1.87,2.45,4.65,3.45,6.53,1.11,1.85,2.78,4.45,3.89,6.29,9.16,13.43,21.01,25.19,34.87,33.72,6.57,4.23,14.08,7.62,21.23,10.79,10.99,4.42,22.73,8.1,34.37,10.43,41.11,8.21,84.89,5.92,124.75-7.2,7.47-2.59,15.1-5.58,22.04-9.17,6.86-3.59,12.56-8.77,17.77-14.86,15.43-17.69,34.57-40.79,37.76-64.57.33-4.02.28-8.26-1.55-11.83-2.14-4.46-6.42-6.13-9.96-1.94-2.41,2.74-3.19,6.36-4.13,9.85-.91,3.75-1.36,7.65-1.6,11.58-.69,12.04.83,23.95,2.06,36.02,1.64,16.19,6.48,32.24,5.24,48.87-2.23,27.93-25.57,44.02-51.09,49.32-44.05,8.81-89.07,11.25-133.87,12.43-12.14.4-24.5-.41-36.56,0-9.85.63-26.45,1.17-29.32,12.25-.34,1.64-.2,3.34.39,4.91,4.42,9.82,19.09,12.74,28.84,14.05,9.7,1.08,19.45,2,29.19,2.66,38.92,2.58,78.39,1.28,116.51-7.48,28.7-6.46,56.41-16.52,84.9-23.79,19.19-4.46,38.96-5.98,58.61-5.39,9.82.36,19.63.92,29.37,2.26,29.22,3.94,56.85,15.38,85.07,23.2,9.45,2.58,18.99,4.84,28.56,6.94-9.59-2.01-19.16-4.16-28.64-6.64-28.23-7.53-56.07-18.63-85.16-22.31-29.04-3.38-58.86-3.06-87.38,3.78-37.85,10.13-74.71,24.68-113.75,29.98-29.23,4.15-58.88,4.68-88.33,2.95-9.82-.61-19.6-1.48-29.38-2.51-7.49-.87-15.03-2.52-21.82-6.01-2.09-.99-5.11-3.24-6.3-4.62-1.65-1.55-3.09-3.47-3.94-5.7-2.78-6.85,1.52-14.56,7.83-17.58,7.63-4.03,16.17-4.61,24.56-5.08,12.32-.48,24.36.26,36.6-.21,36.43-1.07,73-3.34,109.05-8.7,15.65-2.59,32-4.62,45.98-12.41,13.55-7.28,23.85-21.16,24.75-36.69,1.09-16.05-3.74-31.82-5.42-47.89-1.69-16.29-4.17-33.18-.55-49.49.81-3.15,1.63-6.5,3.27-9.4,2.44-4.41,7.38-8.36,12.88-7.18,8.88,2.09,11.64,12.73,11.01,20.67-2.01,25.39-22.95,51.12-39.16,69.72-2.69,3.11-5.71,6.31-8.84,8.98-6.3,5.61-14.26,9.35-21.92,12.48-26.65,11.2-55.62,15.85-84.38,16.83-38.98.86-79.37-6.29-113.09-26.64-14.7-8.99-27.26-21.43-36.95-35.65-1.22-1.92-2.93-4.73-4.14-6.67-1.03-2-2.67-4.93-3.68-6.94-6.59-13.72-10.42-28.9-10.33-44.18.31-6.3.45-12.9,2.58-19.1,1.71-5.31,5.2-10.59,9.98-13.85,6.21-4.36,13.39-7.39,20.84-8.81,18.88-3.6,37.98,1.62,55.32,8.77,34.04,13.75,60.73,25.8,98.35,24.84,16.07-.41,32.26-1.76,48.2-3.74,19.73-2.81,39.77-5.89,58.27-13.26,16.57-7.72,33.48-22.82,33.25-42.41-.59-15.01-9.8-29.56-22.3-37.75-6.4-4.24-13.73-6.99-21.38-9.18-15.43-4.04-31.42-6.95-47.39-9.45-63.26-9.81-130.46-12.04-194.01-20.03-4.88-.99-9.63-4.74-10.16-9.98-.72-7.38,3.68-14.01,8.7-18.8,7.8-7.29,18.64-10.02,28.81-10.97,29.48-2.38,59.03-.19,88.43,2.08,29.07,2.53,58.74,5.81,87.56,10.3,14.54,2.31,29.07,4.82,43.44,8.12,7.31,1.78,14.95,3.86,21.49,7.77,9.84,5.94,17.44,18.07,8.77,28.43-16.83,19.1-55.84,16.63-79.21,15.48-29.38-1.63-58.46-5.3-87.69-8.04-14.56-1.29-29.05-2.77-43.64-2.51-33.26.65-68.97,3.56-97.61,21.93-16.79,10.55-24.77,28.83-24.89,48.26-1.75,38.92,5.01,77.76,12.14,115.95,5.45,28.65,12.07,57.51,17.73,86.15,1.95,9.64,3.6,19.36,4.99,29.12-.77,5.29-3.48,10.3-7.45,13.87-11.98,10.26-28.84,11.04-43.75,12.07-20.26,1.14-40.52,1.13-60.77,1.34-40.51,0-80.94,3.01-121.08,8.43h0Z"/>
    </g>
    <g>
      <path class="cls-1" d="M2483.47,1843.95c0-.3.27-2.84.78-3.35s.84.46,1.2,1.37c1.32,2.95,1.97,6.94,3.59,10.18,1.62,3.25,4.28,6.45,6.47,9.19,2.18,2.74,4.77,4.34,7.61,5.68,3.03,1.43,6.09,2.67,9.75,2.67,3.25,0,6.09-.86,8.53-2.59s4.11-4.27,5.03-7.62c.61-8.33.56-16.61-.15-24.83-.71-8.23-1.63-16.43-2.74-24.6-1.12-8.17-2.24-16.35-3.35-24.53-1.12-8.17-1.73-16.43-1.83-24.76,0-.51-.03-1.14-.08-1.9-.05-.76.02-1.5.23-2.21.2-.71.51-1.32.91-1.83.4-.51,1.12-.76,2.13-.76,1.12,0,2.08.71,2.89,2.13,2.54,14.83,4.82,29.91,6.86,45.25,2.03,15.34,3.05,30.52,3.05,45.55,0,4.06-.28,7.82-.84,11.27-.56,3.45-1.65,6.42-3.28,8.91-1.63,2.49-3.86,4.47-6.7,5.94-2.84,1.47-6.5,2.21-10.97,2.21-3.86,0-7.54-.89-11.04-2.67-3.5-1.78-6.6-4.17-9.29-7.16-2.69-2.99-4.83-6.37-6.4-10.13-1.58-3.76-2.36-7.56-2.36-11.43Z"/>
      <path class="cls-1" d="M2586.61,1861.46c-.51-2.64-.94-5.81-1.29-9.52-.36-3.71-.74-7.46-1.14-11.27-.41-3.81-.89-7.39-1.45-10.74-.06-.36-.12-.72-.19-1.06-.53-2.76-4.23-3.3-5.51-.8-3.89,7.59-7.4,13.77-10.53,18.55-3.96,6.04-7.44,10.36-10.44,12.95-3,2.59-5.51,3.83-7.54,3.73-2.03-.1-3.71-1.01-5.03-2.74-1.32-1.73-2.26-3.93-2.82-6.63-.55-2.62-.92-5.08-1.13-7.36-.01-.12-.02-.23-.01-.35.03-2.22.53-5.31,1.52-9.27,1.01-4.06,2.38-8.5,4.11-13.33,1.73-4.82,3.78-9.72,6.17-14.7,2.38-4.97,4.95-9.5,7.69-13.56,2.74-4.06,5.58-7.41,8.53-10.05,2.94-2.64,5.89-3.96,8.84-3.96,4.37-.71,7.59.23,9.67,2.82,1.8,2.24,2.33,5.79,1.58,10.65-.28,1.82-.45,3.66-.42,5.5.07,5.38.35,10.07.82,14.09.56,4.78,1.17,9.35,1.83,13.71.66,4.37,1.27,8.94,1.83,13.71.56,4.78.84,10.51.84,17.21,0,1.22-.13,2.26-.38,3.12-.25.86-1.5,1.29-3.73,1.29-.3,0-.69-.25-1.14-.76-.46-.51-.69-.91-.69-1.22ZM2578.37,1795.35c.02-2.35-2.61-3.76-4.56-2.44h0c-1.93,1.32-3.96,3.5-6.09,6.55s-4.32,6.7-6.55,10.97c-2.24,4.27-4.32,8.58-6.25,12.95-1.93,4.37-3.61,8.51-5.03,12.42-1.36,3.75-2.31,6.86-2.83,9.35-.05.22-.07.45-.06.67.03,3.44.59,5.38,1.67,5.82,1.12.46,2.49-.13,4.11-1.75s3.48-3.96,5.56-7.01c2.08-3.05,4.11-6.3,6.09-9.75,1.98-3.45,3.86-6.8,5.64-10.05,1.75-3.2,3.13-5.81,4.14-7.83.03-.06.06-.12.09-.19.89-2.1,1.59-4.04,2.09-5.84.51-1.83.94-3.58,1.29-5.26.35-1.68.56-3.38.61-5.1.03-1.12.05-2.29.07-3.51Z"/>
      <path class="cls-1" d="M2600.66,1793.2c-.12-.8-.19-1.61-.19-2.42h0c0-1.01.08-1.69.14-2.55.05-.77.03-1.37.57-1.69.7-.41,4.6,1.18,5.38,1.73.59.42,1.27.74,1.68,1.75.3,1.52.61,3.63.91,6.32.3,2.69.66,5.66,1.07,8.91.4,3.25.84,6.68,1.29,10.28.46,3.61.91,7.01,1.37,10.21s.94,6.07,1.45,8.61c.51,2.54,1.07,4.47,1.68,5.79-.3-9.75,0-18.21.91-25.37s2.67-13,5.26-17.52c2.59-4.52,6.17-9.77,10.69-11.55,4.52-1.78,8.56-2.65,14.94-.06,2.19.89,7.26,2.82,7.26,6.17,0,1.32-.91,1.96-3.1,2.55-1.73.47-3.66.76-5.79.91s-4.22.33-6.25.53c-2.03.21-3.5.71-4.42,1.52-3.66,2.03-6.22,5.18-7.69,9.45-1.47,4.27-2.51,9.29-3.12,15.08s-1.04,12.11-1.29,18.97c-.25,6.86-.94,13.89-2.06,21.1,0,1.02-.41,1.78-1.22,2.29-.81.51-1.8.76-2.97.76s-2.29-.25-3.35-.76c-1.07-.51-1.9-1.27-2.51-2.29l-10.63-68.72Z"/>
      <path class="cls-1" d="M2667.35,1806.93c-.1-.81-.25-2.11-.46-3.88-.21-1.78-.43-3.73-.69-5.87-.25-2.13-.53-4.42-.84-6.86s-.59-4.75-.84-6.93c-.25-2.18-.48-4.14-.69-5.87-.2-1.72-.36-2.98-.46-3.79,0-.01,0-.02,0-.03v-1.05c0-1.32.28-2.49.84-3.5.56-1.01,1.55-1.52,2.97-1.52,1.62,0,2.89.66,3.81,1.98.91,1.32,1.6,2.95,2.06,4.88.46,1.93.74,4.06.84,6.4.1,2.34.13,4.57.08,6.7-.05,2.13-.15,3.99-.3,5.56-.15,1.58-.23,2.62-.23,3.12v3.35c0,1.52-.03,3.18-.08,4.95-.05,1.78-.1,3.43-.15,4.95l-.1,2.9c0,.16-.15.28-.3.27-1.38-.16-2.57-.76-3.56-1.8-1.07-1.12-1.7-2.44-1.9-3.96Z"/>
      <path class="cls-1" d="M2684.48,1854.69c-1.3-4.75-.55-8.96-.6-14.63-.05-5.74.23-11.48.84-17.21.61-5.74,1.65-11.14,3.12-16.22,1.47-5.08,3.55-9.39,6.25-12.95,2.69-3.55,6.07-6.09,10.13-7.62,3.87-1.45,8.53-1.61,13.96-.48.43.09.85-.2.89-.64.23-2.74.26-6.28.07-10.61-.21-4.77-.51-9.8-.91-15.08-.41-5.28-.81-10.38-1.22-15.31-.41-4.92-.66-8.96-.76-12.11,0-.91.43-1.6,1.29-2.06.86-.46,1.8-.74,2.82-.84,1.01-.1,2-.1,2.97,0,.56.06,1.02.14,1.35.23s.55.4.54.74c-.2,12.32-.25,24.41-.14,36.28.1,12.04.23,24.02.38,35.95.15,11.94.33,23.79.53,35.57.2,11.78.3,23.56.3,35.34,0,1.12-.08,2.31-.23,3.58-.15,1.27-1.04,1.9-2.67,1.9-.61,0-1.22-.18-1.83-.53-.61-.36-1.02-.89-1.22-1.6l-.42-35.51c0-.41.07-2.29-.25-2.35-.3-.05-1,1.68-1.16,2.03-.74,1.56-1.58,3.24-2.51,5.06-1.58,3.05-3.4,5.94-5.48,8.68-1.96,2.58-4.2,4.8-6.74,6.65-3.04,2.22-6.75,3.42-10.5,3.23-1.11-.06-2.02-.23-2.71-.51-.86-.35-1.63-.89-2.29-1.6-.66-.71-1.27-1.57-1.83-2.59M2713.36,1793.37c-3.15-.2-6.07,1.04-8.76,3.73s-5.03,6.17-7.01,10.44-3.58,8.96-4.8,14.09c-1.22,5.13-1.96,10.05-2.21,14.78-.25,4.72.05,8.91.91,12.57.83,3.54,2.32,5.99,4.44,7.34.13.08.29.13.44.12,2.14-.06,4.14-.95,6.01-2.66,1.93-1.78,3.71-4.04,5.33-6.78,1.62-2.74,3.05-5.81,4.27-9.22,1.22-3.4,2.26-6.68,3.12-9.83.86-3.15,1.52-6.02,1.98-8.61s.69-4.54.69-5.87c0-1.01.05-2.64.15-4.88.1-2.23.05-4.47-.15-6.7-.21-2.23-.64-4.21-1.29-5.94-.66-1.73-1.7-2.59-3.12-2.59Z"/>
      <path class="cls-1" d="M2856.8,1828.33c-.34-3.46-5.12-4.07-6.33-.8-.02.05-.04.11-.06.16-2.01,5.43-4.52,10.53-7.51,15.29-2.99,4.76-6.56,8.76-10.71,11.99-4.15,3.24-8.97,4.85-14.46,4.85-4.27,0-7.72-.88-10.34-2.65-2.63-1.77-4.67-4.15-6.13-7.14-1.46-2.99-2.53-6.28-3.2-9.89-.67-3.6-1.13-7.23-1.37-10.89-.12-1.22-.25-3.69-.37-7.41-.12-3.72-.25-8.12-.37-13.18-.12-5.06-.27-10.46-.46-16.2-.18-5.74-.37-11.1-.55-16.11-.18-5-.34-9.4-.46-13.18-.12-3.78-.18-6.28-.18-7.51-.12-1.22-.06-2.17.18-2.84.24-.67.67-1.16,1.28-1.46.61-.3,1.31-.49,2.11-.55.79-.06,1.49-.09,2.11-.09h1.46c.73,0,1.4.06,2.01.18.61.12,1.16.4,1.65.82.49.43.73,1.01.73,1.74v77.99c0,2.2.33,4.39,1.01,6.59.67,2.2,1.62,4.24,2.84,6.13,1.22,1.89,2.75,3.45,4.58,4.67,1.83,1.22,3.9,1.83,6.22,1.83,4.64-.37,8.63-2.84,11.99-7.41,3.36-4.58,7.33-10.74,10.7-17.3,3.58-6.99,6.45-14.52,8.04-22.7,1.58-8.17,1.99-16.05,3.21-23.62,1.22-7.57,1.29-14.28,2.2-20.14.82-5.23.71-9.05,1.67-11.46.22-.56.59-1.04,1.06-1.41,1.98-1.57,2.58-1.89,3.78-.96,1.34,1.04,2.35,2.63,3.02,4.76.67,2.14,1.07,4.46,1.19,6.96.11,2.21.02,3.88-.25,4.99-.07.28-.12.55-.12.84-.01,8.03-.41,16-1.19,23.92-.8,8.06-1.19,16.23-1.19,24.53,0,5.25.24,10.5.73,15.74.49,5.25,1.04,10.5,1.65,15.74.61,5.25,1.16,10.47,1.65,15.65.49,5.19.73,10.34.73,15.47,0,.98-.06,1.98-.18,3.02-.12,1.04-.4,1.98-.82,2.84-.43.85-1.01,1.58-1.74,2.2-.73.61-1.77.92-3.11.92-.61-.12-1.04-.18-1.28-.18l-5.42-54.74Z"/>
      <path class="cls-1" d="M2877.05,1906.33c-.18-.4-.23-.84-.18-1.28,1.09-10.5,1.71-20.48,1.86-29.95.15-9.6.1-19.07-.15-28.41-.25-9.34-.64-18.79-1.14-28.34-.5-9.45-.81-19.45-.91-29.99,0-.21.02-.44.07-.65.29-1.27.65-2.25,1.07-2.95.46-.76,1.7-.94,3.73-.53,2.13.51,3.4,1.7,3.81,3.58.4,1.88.51,3.99.3,6.32-.21,2.34-.51,4.67-.91,7.01,0,.02,0,.05-.01.07-.19,1.14-.95,4.26-.13,4.79s3.33-1.51,4.32-2.2c1.99-1.41,4.05-2.86,6.19-4.34,3.66-2.54,7.46-4.8,11.43-6.78s8.07-3.45,12.34-4.42c4.27-.96,8.53-.99,12.8-.08,5.28,1.22,8.96,3.02,11.04,5.41,2.08,2.39,2.89,5.13,2.44,8.23-.46,3.1-1.9,6.5-4.34,10.21-2.44,3.71-5.43,7.44-8.99,11.2-3.56,3.76-7.52,7.46-11.88,11.12-4.37,3.66-8.63,7.03-12.8,10.13-4.17,3.1-8.05,5.82-11.65,8.15-2.94,1.91-5.39,3.41-7.35,4.5-.79.44-1.3,1.23-1.36,2.14-.08,1.12-.17,2.53-.27,4.25-.15,2.59-.3,5.51-.46,8.76-.15,3.25-.3,6.65-.46,10.21-.15,3.55-.3,6.96-.46,10.21-.15,3.25-.3,6.14-.46,8.68-.15,2.54-.23,4.42-.23,5.64-.21.1-.56.2-1.07.3-.51.1-1.12.18-1.83.23-.71.05-1.37.1-1.98.15-.61.05-1.02.02-1.22-.08-.3,0-.61-.28-.91-.84-.09-.16-.17-.32-.23-.46ZM2885.35,1822.01c-.3,1.42-.38,3.18-.23,5.26.15,2.08.35,4.27.61,6.55.25,2.29.53,4.49.84,6.63.05.33.09.65.13.96.26,1.98,2.53,2.98,4.16,1.83,2.96-2.07,6.22-4.17,9.79-6.29,5.13-3.05,10.1-6.35,14.93-9.9,4.82-3.55,9.11-7.51,12.87-11.88,3.76-4.37,6.25-9.29,7.46-14.78.4-2.13.23-3.58-.53-4.34s-2.06-1.29-3.88-1.6c-3.86-.81-8.28-.53-13.25.84-4.98,1.37-9.78,3.38-14.4,6.02-4.62,2.64-8.66,5.79-12.11,9.45-3.45,3.66-5.59,7.42-6.4,11.27Z"/>
    </g>
    <g>
      <path class="cls-1" d="M2483.75,2601.25c0-.3.27-2.84.78-3.35s.84.46,1.2,1.37c1.32,2.95,1.97,6.94,3.59,10.18,1.62,3.25,4.28,6.45,6.47,9.19,2.18,2.74,4.77,4.34,7.61,5.68,3.03,1.43,6.09,2.67,9.75,2.67,3.25,0,6.09-.86,8.53-2.59s4.11-4.27,5.03-7.62c.61-8.33.56-16.61-.15-24.83-.71-8.23-1.63-16.43-2.74-24.6-1.12-8.17-2.24-16.35-3.35-24.53-1.12-8.17-1.73-16.43-1.83-24.76,0-.51-.03-1.14-.08-1.9-.05-.76.02-1.5.23-2.21.2-.71.51-1.32.91-1.83.4-.51,1.12-.76,2.13-.76,1.12,0,2.08.71,2.89,2.13,2.54,14.83,4.82,29.91,6.86,45.25,2.03,15.34,3.05,30.52,3.05,45.55,0,4.06-.28,7.82-.84,11.27-.56,3.45-1.65,6.42-3.28,8.91-1.63,2.49-3.86,4.47-6.7,5.94-2.84,1.47-6.5,2.21-10.97,2.21-3.86,0-7.54-.89-11.04-2.67-3.5-1.78-6.6-4.17-9.29-7.16-2.69-2.99-4.83-6.37-6.4-10.13-1.58-3.76-2.36-7.56-2.36-11.43Z"/>
      <path class="cls-1" d="M2586.89,2618.77c-.51-2.64-.94-5.81-1.29-9.52-.36-3.71-.74-7.46-1.14-11.27-.41-3.81-.89-7.39-1.45-10.74-.06-.36-.12-.72-.19-1.06-.53-2.76-4.23-3.3-5.51-.8-3.89,7.59-7.4,13.77-10.53,18.55-3.96,6.04-7.44,10.36-10.44,12.95-3,2.59-5.51,3.83-7.54,3.73-2.03-.1-3.71-1.01-5.03-2.74-1.32-1.73-2.26-3.93-2.82-6.63-.55-2.62-.92-5.08-1.13-7.36-.01-.12-.02-.23-.01-.35.03-2.22.53-5.31,1.52-9.27,1.01-4.06,2.38-8.5,4.11-13.33,1.73-4.82,3.78-9.72,6.17-14.7,2.38-4.97,4.95-9.5,7.69-13.56,2.74-4.06,5.58-7.41,8.53-10.05,2.94-2.64,5.89-3.96,8.84-3.96,4.37-.71,7.59.23,9.67,2.82,1.8,2.24,2.33,5.79,1.58,10.65-.28,1.82-.45,3.66-.42,5.5.07,5.38.35,10.07.82,14.09.56,4.78,1.17,9.35,1.83,13.71.66,4.37,1.27,8.94,1.83,13.71.56,4.78.84,10.51.84,17.21,0,1.22-.13,2.26-.38,3.12-.25.86-1.5,1.29-3.73,1.29-.3,0-.69-.25-1.14-.76-.46-.51-.69-.91-.69-1.22ZM2578.65,2552.65c.02-2.35-2.61-3.76-4.56-2.44h0c-1.93,1.32-3.96,3.5-6.09,6.55s-4.32,6.7-6.55,10.97c-2.24,4.27-4.32,8.58-6.25,12.95-1.93,4.37-3.61,8.51-5.03,12.42-1.36,3.75-2.31,6.86-2.83,9.35-.05.22-.07.45-.06.67.03,3.44.59,5.38,1.67,5.82,1.12.46,2.49-.13,4.11-1.75s3.48-3.96,5.56-7.01c2.08-3.05,4.11-6.3,6.09-9.75,1.98-3.45,3.86-6.8,5.64-10.05,1.75-3.2,3.13-5.81,4.14-7.83.03-.06.06-.12.09-.19.89-2.1,1.59-4.04,2.09-5.84.51-1.83.94-3.58,1.29-5.26.35-1.68.56-3.38.61-5.1.03-1.12.05-2.29.07-3.51Z"/>
      <path class="cls-1" d="M2600.94,2550.51c-.12-.8-.19-1.61-.19-2.42h0c0-1.01.08-1.69.14-2.55.05-.77.03-1.37.57-1.69.7-.41,4.6,1.18,5.38,1.73.59.42,1.27.74,1.68,1.75.3,1.52.61,3.63.91,6.32.3,2.69.66,5.66,1.07,8.91.4,3.25.84,6.68,1.29,10.28.46,3.61.91,7.01,1.37,10.21s.94,6.07,1.45,8.61c.51,2.54,1.07,4.47,1.68,5.79-.3-9.75,0-18.21.91-25.37s2.67-13,5.26-17.52c2.59-4.52,6.17-9.77,10.69-11.55,4.52-1.78,8.56-2.65,14.94-.06,2.19.89,7.26,2.82,7.26,6.17,0,1.32-.91,1.96-3.1,2.55-1.73.47-3.66.76-5.79.91s-4.22.33-6.25.53c-2.03.21-3.5.71-4.42,1.52-3.66,2.03-6.22,5.18-7.69,9.45-1.47,4.27-2.51,9.29-3.12,15.08s-1.04,12.11-1.29,18.97c-.25,6.86-.94,13.89-2.06,21.1,0,1.02-.41,1.78-1.22,2.29-.81.51-1.8.76-2.97.76s-2.29-.25-3.35-.76c-1.07-.51-1.9-1.27-2.51-2.29l-10.63-68.72Z"/>
      <path class="cls-1" d="M2667.63,2564.23c-.1-.81-.25-2.11-.46-3.88-.21-1.78-.43-3.73-.69-5.87-.25-2.13-.53-4.42-.84-6.86s-.59-4.75-.84-6.93c-.25-2.18-.48-4.14-.69-5.87-.2-1.72-.36-2.98-.46-3.79,0-.01,0-.02,0-.03v-1.05c0-1.32.28-2.49.84-3.5.56-1.01,1.55-1.52,2.97-1.52,1.62,0,2.89.66,3.81,1.98.91,1.32,1.6,2.95,2.06,4.88.46,1.93.74,4.06.84,6.4.1,2.34.13,4.57.08,6.7-.05,2.13-.15,3.99-.3,5.56-.15,1.58-.23,2.62-.23,3.12v3.35c0,1.52-.03,3.18-.08,4.95-.05,1.78-.1,3.43-.15,4.95l-.1,2.9c0,.16-.15.28-.3.27-1.38-.16-2.57-.76-3.56-1.8-1.07-1.12-1.7-2.44-1.9-3.96Z"/>
      <path class="cls-1" d="M2684.76,2611.99c-1.3-4.75-.55-8.96-.6-14.63-.05-5.74.23-11.48.84-17.21.61-5.74,1.65-11.14,3.12-16.22,1.47-5.08,3.55-9.39,6.25-12.95,2.69-3.55,6.07-6.09,10.13-7.62,3.87-1.45,8.53-1.61,13.96-.48.43.09.85-.2.89-.64.23-2.74.26-6.28.07-10.61-.21-4.77-.51-9.8-.91-15.08-.41-5.28-.81-10.38-1.22-15.31-.41-4.92-.66-8.96-.76-12.11,0-.91.43-1.6,1.29-2.06.86-.46,1.8-.74,2.82-.84,1.01-.1,2-.1,2.97,0,.56.06,1.02.14,1.35.23s.55.4.54.74c-.2,12.32-.25,24.41-.14,36.28.1,12.04.23,24.02.38,35.95.15,11.94.33,23.79.53,35.57.2,11.78.3,23.56.3,35.34,0,1.12-.08,2.31-.23,3.58-.15,1.27-1.04,1.9-2.67,1.9-.61,0-1.22-.18-1.83-.53-.61-.36-1.02-.89-1.22-1.6l-.42-35.51c0-.41.07-2.29-.25-2.35-.3-.05-1,1.68-1.16,2.03-.74,1.56-1.58,3.24-2.51,5.06-1.58,3.05-3.4,5.94-5.48,8.68-1.96,2.58-4.2,4.8-6.74,6.65-3.04,2.22-6.75,3.42-10.5,3.23-1.11-.06-2.02-.23-2.71-.51-.86-.35-1.63-.89-2.29-1.6-.66-.71-1.27-1.57-1.83-2.59M2713.64,2550.67c-3.15-.2-6.07,1.04-8.76,3.73s-5.03,6.17-7.01,10.44-3.58,8.96-4.8,14.09c-1.22,5.13-1.96,10.05-2.21,14.78-.25,4.72.05,8.91.91,12.57.83,3.54,2.32,5.99,4.44,7.34.13.08.29.13.44.12,2.14-.06,4.14-.95,6.01-2.66,1.93-1.78,3.71-4.04,5.33-6.78,1.62-2.74,3.05-5.81,4.27-9.22,1.22-3.4,2.26-6.68,3.12-9.83.86-3.15,1.52-6.02,1.98-8.61s.69-4.54.69-5.87c0-1.01.05-2.64.15-4.88.1-2.23.05-4.47-.15-6.7-.21-2.23-.64-4.21-1.29-5.94-.66-1.73-1.7-2.59-3.12-2.59Z"/>
      <path class="cls-1" d="M2857.08,2585.63c-.34-3.46-5.12-4.07-6.33-.8-.02.05-.04.11-.06.16-2.01,5.43-4.52,10.53-7.51,15.29-2.99,4.76-6.56,8.76-10.71,11.99-4.15,3.24-8.97,4.85-14.46,4.85-4.27,0-7.72-.88-10.34-2.65-2.63-1.77-4.67-4.15-6.13-7.14-1.46-2.99-2.53-6.28-3.2-9.89-.67-3.6-1.13-7.23-1.37-10.89-.12-1.22-.25-3.69-.37-7.41-.12-3.72-.25-8.12-.37-13.18-.12-5.06-.27-10.46-.46-16.2-.18-5.74-.37-11.1-.55-16.11-.18-5-.34-9.4-.46-13.18-.12-3.78-.18-6.28-.18-7.51-.12-1.22-.06-2.17.18-2.84.24-.67.67-1.16,1.28-1.46.61-.3,1.31-.49,2.11-.55.79-.06,1.49-.09,2.11-.09h1.46c.73,0,1.4.06,2.01.18.61.12,1.16.4,1.65.82.49.43.73,1.01.73,1.74v77.99c0,2.2.33,4.39,1.01,6.59.67,2.2,1.62,4.24,2.84,6.13,1.22,1.89,2.75,3.45,4.58,4.67,1.83,1.22,3.9,1.83,6.22,1.83,4.64-.37,8.63-2.84,11.99-7.41,3.36-4.58,7.33-10.74,10.7-17.3,3.58-6.99,6.45-14.52,8.04-22.7,1.58-8.17,1.99-16.05,3.21-23.62,1.22-7.57,1.29-14.28,2.2-20.14.82-5.23.71-9.05,1.67-11.46.22-.56.59-1.04,1.06-1.41,1.98-1.57,2.58-1.89,3.78-.96,1.34,1.04,2.35,2.63,3.02,4.76.67,2.14,1.07,4.46,1.19,6.96.11,2.21.02,3.88-.25,4.99-.07.28-.12.55-.12.84-.01,8.03-.41,16-1.19,23.92-.8,8.06-1.19,16.23-1.19,24.53,0,5.25.24,10.5.73,15.74.49,5.25,1.04,10.5,1.65,15.74.61,5.25,1.16,10.47,1.65,15.65.49,5.19.73,10.34.73,15.47,0,.98-.06,1.98-.18,3.02-.12,1.04-.4,1.98-.82,2.84-.43.85-1.01,1.58-1.74,2.2-.73.61-1.77.92-3.11.92-.61-.12-1.04-.18-1.28-.18l-5.42-54.74Z"/>
      <path class="cls-1" d="M2877.33,2663.63c-.18-.4-.23-.84-.18-1.28,1.09-10.5,1.71-20.48,1.86-29.95.15-9.6.1-19.07-.15-28.41-.25-9.34-.64-18.79-1.14-28.34-.5-9.45-.81-19.45-.91-29.99,0-.21.02-.44.07-.65.29-1.27.65-2.25,1.07-2.95.46-.76,1.7-.94,3.73-.53,2.13.51,3.4,1.7,3.81,3.58.4,1.88.51,3.99.3,6.32-.21,2.34-.51,4.67-.91,7.01,0,.02,0,.05-.01.07-.19,1.14-.95,4.26-.13,4.79s3.33-1.51,4.32-2.2c1.99-1.41,4.05-2.86,6.19-4.34,3.66-2.54,7.46-4.8,11.43-6.78s8.07-3.45,12.34-4.42c4.27-.96,8.53-.99,12.8-.08,5.28,1.22,8.96,3.02,11.04,5.41,2.08,2.39,2.89,5.13,2.44,8.23-.46,3.1-1.9,6.5-4.34,10.21-2.44,3.71-5.43,7.44-8.99,11.2-3.56,3.76-7.52,7.46-11.88,11.12-4.37,3.66-8.63,7.03-12.8,10.13-4.17,3.1-8.05,5.82-11.65,8.15-2.94,1.91-5.39,3.41-7.35,4.5-.79.44-1.3,1.23-1.36,2.14-.08,1.12-.17,2.53-.27,4.25-.15,2.59-.3,5.51-.46,8.76-.15,3.25-.3,6.65-.46,10.21-.15,3.55-.3,6.96-.46,10.21-.15,3.25-.3,6.14-.46,8.68-.15,2.54-.23,4.42-.23,5.64-.21.1-.56.2-1.07.3-.51.1-1.12.18-1.83.23-.71.05-1.37.1-1.98.15-.61.05-1.02.02-1.22-.08-.3,0-.61-.28-.91-.84-.09-.16-.17-.32-.23-.46ZM2885.63,2579.32c-.3,1.42-.38,3.18-.23,5.26.15,2.08.35,4.27.61,6.55.25,2.29.53,4.49.84,6.63.05.33.09.65.13.96.26,1.98,2.53,2.98,4.16,1.83,2.96-2.07,6.22-4.17,9.79-6.29,5.13-3.05,10.1-6.35,14.93-9.9,4.82-3.55,9.11-7.51,12.87-11.88,3.76-4.37,6.25-9.29,7.46-14.78.4-2.13.23-3.58-.53-4.34s-2.06-1.29-3.88-1.6c-3.86-.81-8.28-.53-13.25.84-4.98,1.37-9.78,3.38-14.4,6.02-4.62,2.64-8.66,5.79-12.11,9.45-3.45,3.66-5.59,7.42-6.4,11.27Z"/>
    </g>
    <g>
      <path class="cls-4" d="M3692.96,226.73c-11.49,1.18-24.51-2.35-30.64,9.04-6.13,11.39-1.02,21.6,15.32,26.71,16.34,5.11,174.64,19.37,197.11,16.83s25.84-4.74,27.57-14.79-4.09-18.38-17.36-22.47-174.97-17.07-192-15.32Z"/>
      <path class="cls-3" d="M3593.25,356.68c-5.98-15.04-11.96-32.22,0-52.63,11.96-20.41,20.34-23.63,32.3-24.71,11.96-1.07,218.94,31.15,241.67,32.22,22.73,1.07,47.86,2.15,59.82,12.89,11.96,10.74,19.14,27.93,21.53,48.34,2.39,20.41-4.21,63.87-3.01,79.99.57,7.71,4.43,31.32,15.64,55.76s11.59,54.54,2.4,61.35c-16.09,11.92-91.91,39.83-140.94,45.28-52.42,5.82-171.02-1.59-181.79-17.7-10.77-16.11-26.1-44.21-29.69-76.43-3.59-32.22-8.37-126.75-11.96-141.79-3.59-15.04-5.98-22.56-5.98-22.56Z"/>
      <path class="cls-1" d="M3415.3,632.36c30.08-4.24,60.32-7.59,90.69-8.84,30.34-1.27,60.78-.72,91.06-2.64,14.24-1.05,31.28-2.07,42.45-11.88,3.58-3.29,5.96-7.73,6.67-12.54,0,0,0,.32,0,.32-2.13-14.45-5.08-28.82-8.18-43.12-11.2-52.54-24.45-105.12-28.04-158.91-.15-1.8-.35-5.55-.36-7.36-.05-4.16-.43-10.61-.17-14.75.23-7.19.21-15.14,1.8-22.25,5.45-27.36,26.9-41.21,51.74-49.58,27.1-8.78,55.8-10.56,84.09-10.35,40.31,1.94,80.32,7.98,120.57,10.03,22.09.81,52.57,3.12,71.06-10.38,0,0,1.25-1.09,1.25-1.09l.63-.54c.2-.19.37-.39.55-.59,7.87-7.4,1.18-16.59-6.37-21.13-6.1-3.54-12.93-5.31-19.77-6.97-42.72-9.26-86.64-14.15-130.19-17.93-24.23-1.92-48.56-3.4-72.86-2.74-13.58.6-28.96.65-39.47,10.22-3.06,2.76-5.64,6.71-6.52,10.6-1,4.63,2.05,6.11,4.5,6.93,27.66,3.49,68.65,6.74,96.95,9.06,48.79,4.51,97.69,8.35,145.42,20.32,16.46,4.29,32.27,13.38,41.04,28.59,12.68,21.2,9.36,42.5-8.51,59.44-7.71,7.33-17.03,13.09-27.06,16.63-17.7,5.59-36,9.12-54.31,11.46-12.19,1.55-24.42,2.59-36.68,3.27-12.34.79-24.82.69-37.13-.8-30.85-3.43-58.74-18.01-87.39-28.36-19.59-6.63-43.6-8.9-60.47,5.07-6.93,6.36-7.35,16.88-7.72,25.86-.07,11.71,2.36,23.48,6.64,34.4.93,2.25,2.01,4.51,2.98,6.75.98,1.87,2.45,4.65,3.45,6.53,1.11,1.85,2.78,4.45,3.89,6.29,9.15,13.43,21.01,25.19,34.87,33.72,6.57,4.23,14.08,7.62,21.23,10.79,10.99,4.42,22.74,8.1,34.37,10.43,41.11,8.21,84.89,5.92,124.75-7.2,7.47-2.59,15.09-5.58,22.04-9.17,6.86-3.59,12.56-8.77,17.77-14.86,15.43-17.68,34.57-40.8,37.76-64.57.33-4.02.28-8.26-1.55-11.83-2.14-4.46-6.42-6.13-9.96-1.94-2.41,2.74-3.19,6.36-4.13,9.85-.91,3.75-1.36,7.65-1.6,11.58-.69,12.04.83,23.95,2.06,36.02,1.64,16.19,6.47,32.24,5.24,48.87-2.23,27.93-25.56,44.02-51.09,49.32-44.05,8.81-89.07,11.24-133.87,12.43-12.14.4-24.5-.41-36.56,0-9.85.63-26.45,1.17-29.32,12.25-.34,1.64-.2,3.34.39,4.91,4.42,9.82,19.09,12.74,28.84,14.05,9.7,1.08,19.45,2,29.19,2.66,38.92,2.58,78.39,1.28,116.51-7.48,28.7-6.46,56.41-16.52,84.9-23.79,19.19-4.46,38.96-5.98,58.61-5.39,9.82.36,19.63.92,29.37,2.26,29.22,3.94,56.85,15.38,85.07,23.2,9.45,2.58,18.99,4.84,28.56,6.94-9.59-2.01-19.16-4.16-28.64-6.64-28.23-7.53-56.07-18.63-85.16-22.31-29.04-3.38-58.86-3.06-87.38,3.78-37.85,10.13-74.71,24.68-113.75,29.98-29.23,4.15-58.88,4.68-88.33,2.95-9.82-.61-19.6-1.48-29.38-2.51-7.49-.87-15.03-2.52-21.82-6.01-2.09-.99-5.11-3.24-6.3-4.62-1.65-1.55-3.09-3.47-3.94-5.7-2.78-6.85,1.52-14.56,7.83-17.58,7.63-4.03,16.17-4.61,24.56-5.08,12.32-.48,24.36.26,36.6-.21,36.43-1.07,73-3.34,109.05-8.7,15.65-2.59,32-4.62,45.98-12.41,13.55-7.28,23.85-21.16,24.75-36.69,1.09-16.05-3.74-31.82-5.42-47.89-1.69-16.29-4.17-33.18-.55-49.49.81-3.15,1.63-6.5,3.27-9.4,2.44-4.41,7.38-8.36,12.88-7.18,8.88,2.09,11.64,12.73,11.01,20.67-2.01,25.39-22.95,51.12-39.16,69.72-2.69,3.11-5.71,6.31-8.84,8.98-6.3,5.61-14.26,9.35-21.92,12.48-26.65,11.2-55.62,15.85-84.38,16.83-38.98.86-79.37-6.29-113.09-26.64-14.7-8.99-27.26-21.43-36.95-35.65-1.22-1.92-2.93-4.73-4.14-6.67-1.03-2-2.67-4.93-3.68-6.94-6.59-13.72-10.42-28.9-10.33-44.18.31-6.3.45-12.9,2.58-19.1,1.71-5.31,5.2-10.59,9.98-13.85,6.21-4.36,13.39-7.39,20.84-8.81,18.88-3.6,37.98,1.62,55.32,8.77,34.04,13.75,60.73,25.8,98.35,24.84,16.07-.41,32.26-1.76,48.2-3.74,19.73-2.81,39.77-5.89,58.27-13.26,16.58-7.72,33.48-22.82,33.25-42.41-.59-15.01-9.8-29.56-22.3-37.75-6.4-4.24-13.73-6.99-21.38-9.18-15.43-4.04-31.42-6.95-47.39-9.45-63.26-9.81-130.46-12.04-194.01-20.03-4.88-.99-9.63-4.74-10.16-9.98-.72-7.38,3.68-14.01,8.7-18.8,7.8-7.29,18.64-10.02,28.81-10.97,29.48-2.38,59.03-.19,88.43,2.08,29.07,2.53,58.74,5.81,87.56,10.3,14.54,2.31,29.07,4.82,43.44,8.12,7.31,1.78,14.95,3.86,21.49,7.77,9.84,5.94,17.44,18.07,8.77,28.43-16.82,19.1-55.84,16.63-79.21,15.48-29.38-1.63-58.46-5.3-87.69-8.04-14.56-1.29-29.05-2.77-43.64-2.51-33.26.65-68.97,3.56-97.61,21.93-16.79,10.55-24.77,28.83-24.89,48.26-1.75,38.92,5.01,77.76,12.14,115.95,5.45,28.65,12.07,57.51,17.73,86.15,1.95,9.64,3.6,19.36,4.99,29.12-.77,5.29-3.48,10.3-7.45,13.87-11.98,10.26-28.84,11.04-43.75,12.07-20.26,1.14-40.53,1.13-60.77,1.34-40.51,0-80.94,3.01-121.08,8.43h0Z"/>
    </g>
  </g>
</svg>